<svg width="100" height="32" viewBox="0 0 100 32" fill="none" xmlns="http://www.w3.org/2000/svg">
<path d="M13.172 16.24C13.172 15.5467 13.2893 14.8693 13.524 14.208C13.7693 13.536 14.1213 12.928 14.58 12.384C15.0387 11.8293 15.604 11.392 16.276 11.072C16.948 10.7413 17.7107 10.576 18.564 10.576C19.5773 10.576 20.4413 10.8107 21.156 11.28C21.8813 11.7387 22.4147 12.3307 22.756 13.056L21.876 13.6C21.6307 13.0987 21.3213 12.704 20.948 12.416C20.5747 12.1173 20.1747 11.904 19.748 11.776C19.332 11.648 18.916 11.584 18.5 11.584C17.8173 11.584 17.2147 11.7227 16.692 12C16.1693 12.2667 15.7267 12.6293 15.364 13.088C15.012 13.536 14.7453 14.0427 14.564 14.608C14.3827 15.1627 14.292 15.728 14.292 16.304C14.292 16.9333 14.3987 17.536 14.612 18.112C14.8253 18.688 15.124 19.2 15.508 19.648C15.892 20.0853 16.34 20.4373 16.852 20.704C17.3747 20.96 17.94 21.088 18.548 21.088C18.9747 21.088 19.412 21.0133 19.86 20.864C20.308 20.7147 20.724 20.4853 21.108 20.176C21.5027 19.8667 21.8173 19.4667 22.052 18.976L22.98 19.456C22.7453 20.0213 22.3827 20.5013 21.892 20.896C21.4013 21.2907 20.852 21.5893 20.244 21.792C19.6467 21.9947 19.06 22.096 18.484 22.096C17.7053 22.096 16.9907 21.9307 16.34 21.6C15.6893 21.2587 15.124 20.8107 14.644 20.256C14.1747 19.6907 13.812 19.0613 13.556 18.368C13.3 17.664 13.172 16.9547 13.172 16.24ZM28.2208 22.16C27.6234 22.16 27.0688 22.048 26.5568 21.824C26.0554 21.5893 25.6181 21.2747 25.2448 20.88C24.8821 20.4747 24.5994 20.016 24.3968 19.504C24.1941 18.9813 24.0928 18.432 24.0928 17.856C24.0928 17.2587 24.1941 16.704 24.3968 16.192C24.5994 15.6693 24.8874 15.2107 25.2608 14.816C25.6341 14.4107 26.0714 14.096 26.5728 13.872C27.0848 13.6373 27.6394 13.52 28.2368 13.52C28.8341 13.52 29.3834 13.6373 29.8848 13.872C30.3861 14.096 30.8234 14.4107 31.1968 14.816C31.5701 15.2107 31.8581 15.6693 32.0608 16.192C32.2634 16.704 32.3648 17.2587 32.3648 17.856C32.3648 18.432 32.2634 18.9813 32.0608 19.504C31.8581 20.016 31.5701 20.4747 31.1968 20.88C30.8341 21.2747 30.3968 21.5893 29.8848 21.824C29.3834 22.048 28.8288 22.16 28.2208 22.16ZM25.1968 17.872C25.1968 18.4907 25.3301 19.056 25.5968 19.568C25.8741 20.0693 26.2421 20.4693 26.7008 20.768C27.1594 21.056 27.6661 21.2 28.2208 21.2C28.7754 21.2 29.2821 21.0507 29.7408 20.752C30.1994 20.4533 30.5674 20.048 30.8448 19.536C31.1221 19.0133 31.2608 18.448 31.2608 17.84C31.2608 17.2213 31.1221 16.656 30.8448 16.144C30.5674 15.632 30.1994 15.2267 29.7408 14.928C29.2821 14.6293 28.7754 14.48 28.2208 14.48C27.6661 14.48 27.1594 14.6347 26.7008 14.944C26.2528 15.2533 25.8901 15.664 25.6128 16.176C25.3354 16.6773 25.1968 17.2427 25.1968 17.872ZM38.3444 14.624C37.619 14.6453 36.979 14.848 36.4244 15.232C35.8804 15.616 35.4964 16.144 35.2724 16.816V22H34.1844V13.664H35.2084V15.664C35.4964 15.0773 35.875 14.6027 36.3444 14.24C36.8244 13.8773 37.331 13.6747 37.8644 13.632C37.971 13.6213 38.0617 13.616 38.1364 13.616C38.2217 13.616 38.291 13.6213 38.3444 13.632V14.624ZM42.9034 22.112C42.338 22.112 41.8154 21.9947 41.3354 21.76C40.8554 21.5253 40.4394 21.2107 40.0874 20.816C39.746 20.4107 39.4794 19.952 39.2874 19.44C39.0954 18.928 38.9994 18.4 38.9994 17.856C38.9994 17.2693 39.09 16.72 39.2714 16.208C39.4634 15.6853 39.73 15.2213 40.0714 14.816C40.4234 14.4107 40.834 14.096 41.3034 13.872C41.7727 13.6373 42.2954 13.52 42.8714 13.52C43.586 13.52 44.2047 13.7013 44.7274 14.064C45.2607 14.4267 45.7087 14.8747 46.0714 15.408V13.664H47.0474V22.032C47.0474 22.8 46.8607 23.4453 46.4874 23.968C46.1247 24.5013 45.6287 24.9013 44.9994 25.168C44.3807 25.4347 43.7034 25.568 42.9674 25.568C42.018 25.568 41.25 25.3973 40.6634 25.056C40.0767 24.7147 39.5967 24.256 39.2234 23.68L39.8954 23.152C40.226 23.6747 40.6634 24.064 41.2074 24.32C41.762 24.576 42.3487 24.704 42.9674 24.704C43.5114 24.704 44.0074 24.6027 44.4554 24.4C44.914 24.208 45.2767 23.9147 45.5434 23.52C45.8207 23.1253 45.9594 22.6293 45.9594 22.032V20.384C45.6394 20.9067 45.202 21.328 44.6474 21.648C44.0927 21.9573 43.5114 22.112 42.9034 22.112ZM43.2074 21.2C43.538 21.2 43.8527 21.1413 44.1514 21.024C44.4607 20.9067 44.7434 20.752 44.9994 20.56C45.2554 20.3573 45.4687 20.1333 45.6394 19.888C45.81 19.6427 45.9167 19.392 45.9594 19.136V16.56C45.7994 16.1547 45.57 15.7973 45.2714 15.488C44.9727 15.168 44.6314 14.9227 44.2474 14.752C43.874 14.5707 43.4847 14.48 43.0794 14.48C42.61 14.48 42.1887 14.5813 41.8154 14.784C41.4527 14.976 41.1434 15.2373 40.8874 15.568C40.642 15.888 40.45 16.2507 40.3114 16.656C40.1727 17.0613 40.1034 17.4667 40.1034 17.872C40.1034 18.32 40.1834 18.7467 40.3434 19.152C40.5034 19.5467 40.722 19.904 40.9994 20.224C41.2874 20.5333 41.618 20.7733 41.9914 20.944C42.3754 21.1147 42.7807 21.2 43.2074 21.2ZM49.45 22V13.664H50.538V22H49.45ZM49.45 11.92V10.32H50.538V11.92H49.45ZM55.6704 22.16C54.9877 22.16 54.353 22.048 53.7664 21.824C53.1797 21.6 52.673 21.2587 52.2464 20.8L52.6944 20.032C53.1637 20.4693 53.633 20.7893 54.1024 20.992C54.5824 21.184 55.089 21.28 55.6224 21.28C56.273 21.28 56.801 21.152 57.2064 20.896C57.6117 20.6293 57.8144 20.2507 57.8144 19.76C57.8144 19.4293 57.713 19.1787 57.5104 19.008C57.3184 18.8267 57.0357 18.6827 56.6624 18.576C56.2997 18.4587 55.8624 18.336 55.3504 18.208C54.7744 18.048 54.289 17.8827 53.8944 17.712C53.5104 17.5307 53.217 17.3067 53.0144 17.04C52.8224 16.7627 52.7264 16.4053 52.7264 15.968C52.7264 15.424 52.8597 14.976 53.1264 14.624C53.4037 14.2613 53.777 13.9893 54.2464 13.808C54.7264 13.616 55.2597 13.52 55.8464 13.52C56.4864 13.52 57.0517 13.6213 57.5424 13.824C58.033 14.0267 58.433 14.3093 58.7424 14.672L58.2144 15.408C57.9157 15.0667 57.5584 14.816 57.1424 14.656C56.737 14.4853 56.2837 14.4 55.7824 14.4C55.441 14.4 55.1157 14.448 54.8064 14.544C54.497 14.6293 54.241 14.7787 54.0384 14.992C53.8464 15.1947 53.7504 15.4773 53.7504 15.84C53.7504 16.1387 53.825 16.3733 53.9744 16.544C54.1237 16.704 54.3477 16.8427 54.6464 16.96C54.945 17.0667 55.313 17.184 55.7504 17.312C56.3797 17.4827 56.929 17.6587 57.3984 17.84C57.8677 18.0107 58.2304 18.2347 58.4864 18.512C58.7424 18.7893 58.8704 19.1787 58.8704 19.68C58.8704 20.4587 58.577 21.0667 57.9904 21.504C57.4037 21.9413 56.6304 22.16 55.6704 22.16ZM67.6768 22H66.5888V17.344C66.5888 16.4053 66.4234 15.7013 66.0928 15.232C65.7621 14.752 65.2874 14.512 64.6688 14.512C64.2634 14.512 63.8581 14.6187 63.4528 14.832C63.0581 15.0347 62.7061 15.3173 62.3968 15.68C62.0981 16.032 61.8848 16.4373 61.7568 16.896V22H60.6688V10.32H61.7568V15.552C62.0874 14.9333 62.5461 14.4427 63.1328 14.08C63.7301 13.7067 64.3648 13.52 65.0368 13.52C65.5168 13.52 65.9221 13.6053 66.2528 13.776C66.5941 13.9467 66.8661 14.1973 67.0688 14.528C67.2821 14.848 67.4368 15.2267 67.5328 15.664C67.6288 16.0907 67.6768 16.576 67.6768 17.12V22ZM77.319 10.64H78.263L82.983 22H81.799L80.327 18.448H75.223L73.767 22H72.567L77.319 10.64ZM80.071 17.568L77.783 11.952L75.463 17.568H80.071ZM84.6115 22V10.64H85.7315V22H84.6115Z" fill="white"/>
<path d="M13.172 16.24C13.172 15.5467 13.2893 14.8693 13.524 14.208C13.7693 13.536 14.1213 12.928 14.58 12.384C15.0387 11.8293 15.604 11.392 16.276 11.072C16.948 10.7413 17.7107 10.576 18.564 10.576C19.5773 10.576 20.4413 10.8107 21.156 11.28C21.8813 11.7387 22.4147 12.3307 22.756 13.056L21.876 13.6C21.6307 13.0987 21.3213 12.704 20.948 12.416C20.5747 12.1173 20.1747 11.904 19.748 11.776C19.332 11.648 18.916 11.584 18.5 11.584C17.8173 11.584 17.2147 11.7227 16.692 12C16.1693 12.2667 15.7267 12.6293 15.364 13.088C15.012 13.536 14.7453 14.0427 14.564 14.608C14.3827 15.1627 14.292 15.728 14.292 16.304C14.292 16.9333 14.3987 17.536 14.612 18.112C14.8253 18.688 15.124 19.2 15.508 19.648C15.892 20.0853 16.34 20.4373 16.852 20.704C17.3747 20.96 17.94 21.088 18.548 21.088C18.9747 21.088 19.412 21.0133 19.86 20.864C20.308 20.7147 20.724 20.4853 21.108 20.176C21.5027 19.8667 21.8173 19.4667 22.052 18.976L22.98 19.456C22.7453 20.0213 22.3827 20.5013 21.892 20.896C21.4013 21.2907 20.852 21.5893 20.244 21.792C19.6467 21.9947 19.06 22.096 18.484 22.096C17.7053 22.096 16.9907 21.9307 16.34 21.6C15.6893 21.2587 15.124 20.8107 14.644 20.256C14.1747 19.6907 13.812 19.0613 13.556 18.368C13.3 17.664 13.172 16.9547 13.172 16.24ZM28.2208 22.16C27.6234 22.16 27.0688 22.048 26.5568 21.824C26.0554 21.5893 25.6181 21.2747 25.2448 20.88C24.8821 20.4747 24.5994 20.016 24.3968 19.504C24.1941 18.9813 24.0928 18.432 24.0928 17.856C24.0928 17.2587 24.1941 16.704 24.3968 16.192C24.5994 15.6693 24.8874 15.2107 25.2608 14.816C25.6341 14.4107 26.0714 14.096 26.5728 13.872C27.0848 13.6373 27.6394 13.52 28.2368 13.52C28.8341 13.52 29.3834 13.6373 29.8848 13.872C30.3861 14.096 30.8234 14.4107 31.1968 14.816C31.5701 15.2107 31.8581 15.6693 32.0608 16.192C32.2634 16.704 32.3648 17.2587 32.3648 17.856C32.3648 18.432 32.2634 18.9813 32.0608 19.504C31.8581 20.016 31.5701 20.4747 31.1968 20.88C30.8341 21.2747 30.3968 21.5893 29.8848 21.824C29.3834 22.048 28.8288 22.16 28.2208 22.16ZM25.1968 17.872C25.1968 18.4907 25.3301 19.056 25.5968 19.568C25.8741 20.0693 26.2421 20.4693 26.7008 20.768C27.1594 21.056 27.6661 21.2 28.2208 21.2C28.7754 21.2 29.2821 21.0507 29.7408 20.752C30.1994 20.4533 30.5674 20.048 30.8448 19.536C31.1221 19.0133 31.2608 18.448 31.2608 17.84C31.2608 17.2213 31.1221 16.656 30.8448 16.144C30.5674 15.632 30.1994 15.2267 29.7408 14.928C29.2821 14.6293 28.7754 14.48 28.2208 14.48C27.6661 14.48 27.1594 14.6347 26.7008 14.944C26.2528 15.2533 25.8901 15.664 25.6128 16.176C25.3354 16.6773 25.1968 17.2427 25.1968 17.872ZM38.3444 14.624C37.619 14.6453 36.979 14.848 36.4244 15.232C35.8804 15.616 35.4964 16.144 35.2724 16.816V22H34.1844V13.664H35.2084V15.664C35.4964 15.0773 35.875 14.6027 36.3444 14.24C36.8244 13.8773 37.331 13.6747 37.8644 13.632C37.971 13.6213 38.0617 13.616 38.1364 13.616C38.2217 13.616 38.291 13.6213 38.3444 13.632V14.624ZM42.9034 22.112C42.338 22.112 41.8154 21.9947 41.3354 21.76C40.8554 21.5253 40.4394 21.2107 40.0874 20.816C39.746 20.4107 39.4794 19.952 39.2874 19.44C39.0954 18.928 38.9994 18.4 38.9994 17.856C38.9994 17.2693 39.09 16.72 39.2714 16.208C39.4634 15.6853 39.73 15.2213 40.0714 14.816C40.4234 14.4107 40.834 14.096 41.3034 13.872C41.7727 13.6373 42.2954 13.52 42.8714 13.52C43.586 13.52 44.2047 13.7013 44.7274 14.064C45.2607 14.4267 45.7087 14.8747 46.0714 15.408V13.664H47.0474V22.032C47.0474 22.8 46.8607 23.4453 46.4874 23.968C46.1247 24.5013 45.6287 24.9013 44.9994 25.168C44.3807 25.4347 43.7034 25.568 42.9674 25.568C42.018 25.568 41.25 25.3973 40.6634 25.056C40.0767 24.7147 39.5967 24.256 39.2234 23.68L39.8954 23.152C40.226 23.6747 40.6634 24.064 41.2074 24.32C41.762 24.576 42.3487 24.704 42.9674 24.704C43.5114 24.704 44.0074 24.6027 44.4554 24.4C44.914 24.208 45.2767 23.9147 45.5434 23.52C45.8207 23.1253 45.9594 22.6293 45.9594 22.032V20.384C45.6394 20.9067 45.202 21.328 44.6474 21.648C44.0927 21.9573 43.5114 22.112 42.9034 22.112ZM43.2074 21.2C43.538 21.2 43.8527 21.1413 44.1514 21.024C44.4607 20.9067 44.7434 20.752 44.9994 20.56C45.2554 20.3573 45.4687 20.1333 45.6394 19.888C45.81 19.6427 45.9167 19.392 45.9594 19.136V16.56C45.7994 16.1547 45.57 15.7973 45.2714 15.488C44.9727 15.168 44.6314 14.9227 44.2474 14.752C43.874 14.5707 43.4847 14.48 43.0794 14.48C42.61 14.48 42.1887 14.5813 41.8154 14.784C41.4527 14.976 41.1434 15.2373 40.8874 15.568C40.642 15.888 40.45 16.2507 40.3114 16.656C40.1727 17.0613 40.1034 17.4667 40.1034 17.872C40.1034 18.32 40.1834 18.7467 40.3434 19.152C40.5034 19.5467 40.722 19.904 40.9994 20.224C41.2874 20.5333 41.618 20.7733 41.9914 20.944C42.3754 21.1147 42.7807 21.2 43.2074 21.2ZM49.45 22V13.664H50.538V22H49.45ZM49.45 11.92V10.32H50.538V11.92H49.45ZM55.6704 22.16C54.9877 22.16 54.353 22.048 53.7664 21.824C53.1797 21.6 52.673 21.2587 52.2464 20.8L52.6944 20.032C53.1637 20.4693 53.633 20.7893 54.1024 20.992C54.5824 21.184 55.089 21.28 55.6224 21.28C56.273 21.28 56.801 21.152 57.2064 20.896C57.6117 20.6293 57.8144 20.2507 57.8144 19.76C57.8144 19.4293 57.713 19.1787 57.5104 19.008C57.3184 18.8267 57.0357 18.6827 56.6624 18.576C56.2997 18.4587 55.8624 18.336 55.3504 18.208C54.7744 18.048 54.289 17.8827 53.8944 17.712C53.5104 17.5307 53.217 17.3067 53.0144 17.04C52.8224 16.7627 52.7264 16.4053 52.7264 15.968C52.7264 15.424 52.8597 14.976 53.1264 14.624C53.4037 14.2613 53.777 13.9893 54.2464 13.808C54.7264 13.616 55.2597 13.52 55.8464 13.52C56.4864 13.52 57.0517 13.6213 57.5424 13.824C58.033 14.0267 58.433 14.3093 58.7424 14.672L58.2144 15.408C57.9157 15.0667 57.5584 14.816 57.1424 14.656C56.737 14.4853 56.2837 14.4 55.7824 14.4C55.441 14.4 55.1157 14.448 54.8064 14.544C54.497 14.6293 54.241 14.7787 54.0384 14.992C53.8464 15.1947 53.7504 15.4773 53.7504 15.84C53.7504 16.1387 53.825 16.3733 53.9744 16.544C54.1237 16.704 54.3477 16.8427 54.6464 16.96C54.945 17.0667 55.313 17.184 55.7504 17.312C56.3797 17.4827 56.929 17.6587 57.3984 17.84C57.8677 18.0107 58.2304 18.2347 58.4864 18.512C58.7424 18.7893 58.8704 19.1787 58.8704 19.68C58.8704 20.4587 58.577 21.0667 57.9904 21.504C57.4037 21.9413 56.6304 22.16 55.6704 22.16ZM67.6768 22H66.5888V17.344C66.5888 16.4053 66.4234 15.7013 66.0928 15.232C65.7621 14.752 65.2874 14.512 64.6688 14.512C64.2634 14.512 63.8581 14.6187 63.4528 14.832C63.0581 15.0347 62.7061 15.3173 62.3968 15.68C62.0981 16.032 61.8848 16.4373 61.7568 16.896V22H60.6688V10.32H61.7568V15.552C62.0874 14.9333 62.5461 14.4427 63.1328 14.08C63.7301 13.7067 64.3648 13.52 65.0368 13.52C65.5168 13.52 65.9221 13.6053 66.2528 13.776C66.5941 13.9467 66.8661 14.1973 67.0688 14.528C67.2821 14.848 67.4368 15.2267 67.5328 15.664C67.6288 16.0907 67.6768 16.576 67.6768 17.12V22ZM77.319 10.64H78.263L82.983 22H81.799L80.327 18.448H75.223L73.767 22H72.567L77.319 10.64ZM80.071 17.568L77.783 11.952L75.463 17.568H80.071ZM84.6115 22V10.64H85.7315V22H84.6115Z" fill="#999999"/>
<rect x="0.5" y="0.5" width="99" height="31" rx="9.5" stroke="#B3B3B3"/>
</svg>
