<svg width="30" height="30" viewBox="0 0 30 30" fill="none" xmlns="http://www.w3.org/2000/svg">
<g clip-path="url(#clip0_223_676)">
<path fill-rule="evenodd" clip-rule="evenodd" d="M22.5 4.6875C20.9467 4.6875 19.6875 5.94669 19.6875 7.5C19.6875 9.05331 20.9467 10.3125 22.5 10.3125C24.0533 10.3125 25.3125 9.05331 25.3125 7.5C25.3125 5.94669 24.0533 4.6875 22.5 4.6875ZM17.8125 7.5C17.8125 4.91118 19.9111 2.8125 22.5 2.8125C25.0889 2.8125 27.1875 4.91118 27.1875 7.5C27.1875 10.0888 25.0889 12.1875 22.5 12.1875C21.0026 12.1875 19.6693 11.4854 18.8111 10.3926L12.0282 13.784C12.1321 14.1718 12.1875 14.5794 12.1875 15C12.1875 15.4206 12.1321 15.8282 12.0282 16.216L18.8111 19.6074C19.6693 18.5145 21.0026 17.8125 22.5 17.8125C25.0889 17.8125 27.1875 19.9111 27.1875 22.5C27.1875 25.0889 25.0889 27.1875 22.5 27.1875C19.9111 27.1875 17.8125 25.0889 17.8125 22.5C17.8125 22.0794 17.8679 21.6718 17.9717 21.284L11.1889 17.8926C10.3307 18.9855 8.99732 19.6875 7.5 19.6875C4.91118 19.6875 2.8125 17.5889 2.8125 15C2.8125 12.4111 4.91118 10.3125 7.5 10.3125C8.99732 10.3125 10.3307 11.0145 11.1888 12.1074L17.9717 8.71595C17.8679 8.32816 17.8125 7.92055 17.8125 7.5ZM7.5 12.1875C5.94669 12.1875 4.6875 13.4467 4.6875 15C4.6875 16.5533 5.94669 17.8125 7.5 17.8125C9.05331 17.8125 10.3125 16.5533 10.3125 15C10.3125 13.4467 9.05331 12.1875 7.5 12.1875ZM22.5 19.6875C20.9466 19.6875 19.6875 20.9466 19.6875 22.5C19.6875 24.0534 20.9466 25.3125 22.5 25.3125C24.0534 25.3125 25.3125 24.0534 25.3125 22.5C25.3125 20.9466 24.0534 19.6875 22.5 19.6875Z" fill="#808080"/>
</g>
<defs>
<clipPath id="clip0_223_676">
<rect width="30" height="30" fill="white"/>
</clipPath>
</defs>
</svg>
